<svg width="20" height="20" viewBox="0 0 20 20" fill="none" xmlns="http://www.w3.org/2000/svg">
<path d="M0 6.56249V5.93749C0 5.41972 0.419727 4.99999 0.9375 4.99999H15V3.12499C15 2.29034 16.0117 1.87335 16.6004 2.46206L19.7254 5.58706C20.0915 5.95319 20.0915 6.54679 19.7254 6.91288L16.6004 10.0379C16.0139 10.6243 15 10.2131 15 9.37499V7.49999H0.9375C0.419727 7.49999 0 7.08026 0 6.56249ZM19.0625 12.5H5V10.625C5 9.79241 3.98977 9.37186 3.39957 9.96206L0.27457 13.0871C-0.0915234 13.4532 -0.0915234 14.0468 0.27457 14.4129L3.39957 17.5379C3.9866 18.1249 5 17.7124 5 16.875V15H19.0625C19.5803 15 20 14.5803 20 14.0625V13.4375C20 12.9197 19.5803 12.5 19.0625 12.5Z" fill="black" fill-opacity="0.5413"/>
</svg>
